<svg xmlns="http://www.w3.org/2000/svg" xmlns:xlink="http://www.w3.org/1999/xlink" width="20px" height="20px" viewBox="0 0 20 20" version="1.1">
    <title>73D22159-4ACF-4E61-95CA-97DCCEDB644A</title>
    <defs>
        <path d="M10,0.833333333 C15.0626123,0.833333333 19.1666667,4.93738771 19.1666667,10 C19.1666667,15.0626123 15.0626123,19.1666667 10,19.1666667 C4.93738771,19.1666667 0.833333333,15.0626123 0.833333333,10 C0.833333333,4.93738771 4.93738771,0.833333333 10,0.833333333 Z M10,2.5 C5.85786229,2.5 2.5,5.85786229 2.5,10 C2.5,14.1421377 5.85786229,17.5 10,17.5 C14.1421377,17.5 17.5,14.1421377 17.5,10 C17.5,5.85786229 14.1421377,2.5 10,2.5 Z M10,5.83333333 C10.4248344,5.83333333 10.7754183,6.15123765 10.8268405,6.5621351 L10.8333333,6.66666667 L10.8333333,9.16633333 L13.3333333,9.16666667 C13.7935706,9.16666667 14.1666667,9.53976271 14.1666667,10 C14.1666667,10.4248344 13.8487623,10.7754183 13.4378649,10.8268405 L13.3333333,10.8333333 L10.8333333,10.8333333 L10.8333333,13.3333333 C10.8333333,13.7935706 10.4602373,14.1666667 10,14.1666667 C9.57516558,14.1666667 9.22458169,13.8487623 9.17315952,13.4378649 L9.16666667,13.3333333 L9.16633333,10.8333333 L6.66666667,10.8333333 C6.20642938,10.8333333 5.83333333,10.4602373 5.83333333,10 C5.83333333,9.57516558 6.15123765,9.22458169 6.5621351,9.17315952 L6.66666667,9.16666667 L9.16633333,9.16633333 L9.16666667,6.66666667 C9.16666667,6.20642938 9.53976271,5.83333333 10,5.83333333 Z" id="path-1"/>
    </defs>
    <g id="Page-1" stroke="none" stroke-width="1" fill="none" fill-rule="evenodd">
        <g id="Tasks" transform="translate(-1302.000000, -25.000000)">
            <g id="Button/Primary/With-Icon/Default" transform="translate(1290.000000, 16.000000)">
                <g id="Icon/Upload" transform="translate(12.000000, 9.000000)">
                    <mask id="mask-2" fill="white">
                        <use xlink:href="#path-1"/>
                    </mask>
                    <use id="Add" fill="#000000" fill-rule="nonzero" xlink:href="#path-1"/>
                </g>
            </g>
        </g>
    </g>
</svg>