<svg xmlns="http://www.w3.org/2000/svg" xmlns:xlink="http://www.w3.org/1999/xlink" width="20px" height="20px" viewBox="0 0 20 20" version="1.1">
    <title>73F62FBF-13FB-42C1-B51D-2230478663D7</title>
    <defs>
        <path d="M2.5,19.1666667 C1.57952542,19.1666667 0.833333333,18.4204746 0.833333333,17.5 L0.833333333,17.5 L0.833333333,4.16666667 C0.833333333,3.24619208 1.57952542,2.5 2.5,2.5 L2.5,2.5 L6.24933333,2.49933333 L6.25,1.66666667 C6.25,1.20642938 6.62309604,0.833333333 7.08333333,0.833333333 C7.50816776,0.833333333 7.85875165,1.15123765 7.91017382,1.5621351 L7.91666667,1.66666667 L7.91633333,2.49933333 L12.0833333,2.49933333 L12.0833333,1.66666667 C12.0833333,1.20642938 12.4564294,0.833333333 12.9166667,0.833333333 C13.3415011,0.833333333 13.692085,1.15123765 13.7435072,1.5621351 L13.75,1.66666667 L13.7493333,2.49933333 L17.5,2.5 C18.3720286,2.5 19.0876374,3.16971256 19.160549,4.02286029 L19.1666667,4.16666667 L19.1666667,17.5 C19.1666667,18.4204746 18.4204746,19.1666667 17.5,19.1666667 L17.5,19.1666667 Z M6.24933333,14.1663333 L2.49933333,14.1663333 L2.5,17.5 L6.24933333,17.4993333 L6.24933333,14.1663333 Z M12.0833333,14.1663333 L7.91633333,14.1663333 L7.91633333,17.4993333 L12.0833333,17.4993333 L12.0833333,14.1663333 Z M17.4993333,14.1663333 L13.7493333,14.1663333 L13.7493333,17.4993333 L17.5,17.5 L17.4993333,14.1663333 Z M6.24933333,9.16633333 L2.49933333,9.16633333 L2.49933333,12.4993333 L6.24933333,12.4993333 L6.24933333,9.16633333 Z M12.0833333,9.16633333 L7.91633333,9.16633333 L7.91633333,12.4993333 L12.0833333,12.4993333 L12.0833333,9.16633333 Z M17.4993333,9.16633333 L13.7493333,9.16633333 L13.7493333,12.4993333 L17.4993333,12.4993333 L17.4993333,9.16633333 Z M6.24933333,4.16633333 L2.5,4.16666667 L2.49933333,7.49933333 L17.4993333,7.49933333 L17.5,4.16666667 L13.7493333,4.16633333 L13.75,5 C13.75,5.46023729 13.376904,5.83333333 12.9166667,5.83333333 C12.4918322,5.83333333 12.1412484,5.51542901 12.0898262,5.10453156 L12.0833333,5 L12.0833333,4.16633333 L7.91633333,4.16633333 L7.91666667,5 C7.91666667,5.46023729 7.54357062,5.83333333 7.08333333,5.83333333 C6.65849891,5.83333333 6.30791502,5.51542901 6.25649285,5.10453156 L6.25,5 L6.24933333,4.16633333 Z" id="path-1"/>
    </defs>
    <g id="Page-1" stroke="none" stroke-width="1" fill="none" fill-rule="evenodd">
        <g id="Tasks" transform="translate(-28.000000, -321.000000)">
            <g id="card/default" transform="translate(12.000000, 82.000000)">
                <g id="Icon/Calendar" transform="translate(16.000000, 239.000000)">
                    <mask id="mask-2" fill="white">
                        <use xlink:href="#path-1"/>
                    </mask>
                    <use id="Calendar" fill="#9EA0A5" fill-rule="nonzero" xlink:href="#path-1"/>
                </g>
            </g>
        </g>
    </g>
</svg>