<svg xmlns="http://www.w3.org/2000/svg" xmlns:xlink="http://www.w3.org/1999/xlink" width="20px" height="20px" viewBox="0 0 20 20" version="1.1">
    <title>CD7D570B-E774-42C5-8445-956613382734</title>
    <defs>
        <path d="M14,8.1712418e-14 C14.5522847,8.1712418e-14 15,0.44771525 15,1 C15,1.50980131 14.6185148,1.93050198 14.1254379,1.99220858 L14,2 L2.5,2 C2.254542,2 2.05039205,2.17687684 2.00805574,2.41012493 L2,2.5 L2,17.5 C2,17.7454703 2.17686798,17.9496107 2.41012197,17.9919447 L2.5,18 L17.5,18 C17.7454802,18 17.9496129,17.8231429 17.9919451,17.5898817 L18,17.5 L18,7 C18,6.44771525 18.4477153,6 19,6 C19.5098013,6 19.930502,6.38148518 19.9922086,6.87456212 L20,7 L20,17.5 C20,18.8207028 18.9759463,19.9021783 17.6785425,19.9937231 L17.5,20 L2.5,20 C1.17931531,20 0.0978232599,18.9759408 0.00627704091,17.6785418 L-2.13162821e-14,17.5 L-2.13162821e-14,2.5 C-2.13162821e-14,1.17932111 1.02407652,0.0978237637 2.32146046,0.00627707377 L2.5,8.1712418e-14 L14,8.1712418e-14 Z M19.6332378,0.226042701 C20.0250622,0.546626311 20.1106536,1.10273569 19.8528186,1.52243565 L19.7739573,1.63323779 L10.7739573,12.6332378 C10.4558618,13.0220211 9.90525219,13.1097399 9.48608957,12.8579771 L9.37530495,12.7808688 L4.37530495,8.78086881 C3.94404302,8.43585926 3.87412164,7.80656689 4.21913119,7.37530495 C4.53538994,6.97998151 5.09052524,6.88828451 5.51303305,7.14149218 L5.62469505,7.21913119 L9.8524,10.6 L18.2260427,0.36676221 C18.5757703,-0.0606826036 19.205793,-0.123684874 19.6332378,0.226042701 Z" id="path-1"/>
    </defs>
    <g id="Page-1" stroke="none" stroke-width="1" fill="#34AA44" fill-rule="evenodd">
        <g id="Tasks" transform="translate(-32.000000, -25.000000)">
            <g id="Icon/Check" transform="translate(32.000000, 25.000000)">
                <mask id="mask-2" fill="white">
                    <use xlink:href="#path-1"/>
                </mask>
                <use id="Check" fill="#34AA44" fill-rule="nonzero" xlink:href="#path-1"/>
            </g>
        </g>
    </g>
</svg>